<?xml version="1.0" encoding="utf-8"?>
<!--Designed by Vexels.com - 2018 All Rights Reserved - https://vexels.com/terms-and-conditions/-->
<svg version="1.1" id="Layer_1" xmlns="http://www.w3.org/2000/svg" xmlns:xlink="http://www.w3.org/1999/xlink" x="0px" y="0px"
	 viewBox="0 0 1200 1200" enable-background="new 0 0 1200 1200" xml:space="preserve">
<g>
	<g>
		<polygon fill="#E85F63" points="77.564,107.8 177.888,376.312 314.501,247.92 		"/>
		<polygon fill="#E85F63" points="1122.429,107.8 885.494,247.92 1022.106,376.312 		"/>
		<path fill="#E85F63" d="M725.033,247.92c-257.476,0-466.203,208.727-466.203,466.203c0,121.569,46.918,231.909,123.142,314.904
			c64.955,34.341,138.888,53.982,217.475,53.982c257.478,0,466.203-208.727,466.203-466.203
			c0-121.567-46.918-231.907-123.139-314.902C877.552,267.562,803.621,247.92,725.033,247.92z M599.448,907.784
			c-134.182,0-246.409-92.785-276.801-217.612h553.599C845.854,814.999,733.627,907.784,599.448,907.784z"/>
	</g>
	<g>
		<path fill="#2B2B2B" d="M1148.249,117.456c4.092-10.948,0.862-23.296-8.112-30.798c-9.01-7.52-21.717-8.507-31.732-2.584
			L894.643,210.481c-83.022-60.486-184.852-96.633-295.2-96.633c-110.127,0-211.776,35.996-294.708,96.265L91.595,84.073
			c-9.979-5.941-22.758-4.9-31.732,2.584c-8.974,7.502-12.204,19.85-8.112,30.798l100.328,268.516
			c0.132,0.352,0.393,0.608,0.536,0.953c-35.644,68.991-56.139,147.032-56.139,229.89c0,277.328,225.639,502.949,502.967,502.949
			s502.967-225.621,502.967-502.949c0-82.438-20.317-160.091-55.625-228.827c0.334-0.709,0.857-1.27,1.135-2.017L1148.249,117.456z
			 M130.685,171.245l128.676,76.089c-26.154,24.093-49.823,50.752-70.416,79.847L130.685,171.245z M599.444,1046.25
			c-236.802,0-429.453-192.651-429.453-429.435c0-236.802,192.651-429.453,429.453-429.453s429.453,192.651,429.453,429.453
			C1028.896,853.6,836.246,1046.25,599.444,1046.25z M939.966,247.734l129.349-76.489l-58.631,156.928
			C990.037,298.849,966.248,272.004,939.966,247.734z"/>
		<path fill="#2B2B2B" d="M876.233,662.6H322.654c-8.471,0-16.44,3.877-21.681,10.535c-5.241,6.659-7.107,15.345-5.097,23.547
			c34.208,140.531,159.053,238.669,303.568,238.669c144.551,0,269.395-98.138,303.568-238.669c2.01-8.22,0.108-16.907-5.097-23.547
			C892.673,666.477,884.705,662.6,876.233,662.6z M599.444,880.216c-106.932,0-200.799-65.276-239.171-162.481h478.378
			C800.279,814.958,706.412,880.216,599.444,880.216z"/>
		<path fill="#2B2B2B" d="M459.494,462.49c-15.969,5.898-27.485,20.934-27.485,38.951c0,23.114,18.737,41.852,41.852,41.852
			c23.114,0,41.852-18.737,41.852-41.852c0-2.107-0.897-3.915-1.198-5.938c0.386,0.011,0.763,0.184,1.149,0.184
			c11.128,0,22.112-5.025,29.362-14.574c12.24-16.189,9.046-39.234-7.143-51.492l-109.158-82.613
			c-16.261-12.294-39.27-9.064-51.51,7.125c-12.24,16.189-9.046,39.234,7.143,51.492L459.494,462.49z"/>
		<path fill="#2B2B2B" d="M683.224,495.686c0.39,0,0.769-0.173,1.16-0.186c-0.301,2.024-1.2,3.834-1.2,5.941
			c0,23.114,18.737,41.852,41.852,41.852c23.112,0,41.85-18.737,41.85-41.852c0-18.02-11.516-33.06-27.489-38.953l75.134-56.863
			c16.189-12.258,19.383-35.303,7.143-51.492c-12.312-16.189-35.321-19.419-51.51-7.125l-109.158,82.613
			c-16.189,12.258-19.384,35.303-7.143,51.492C661.112,490.661,672.096,495.686,683.224,495.686z"/>
	</g>
</g>
</svg>
