<?xml version="1.0" standalone="no"?>
<svg version="1.1" id="downloadSvg" xmlns="http://www.w3.org/2000/svg" xmlns:xlink="http://www.w3.org/1999/xlink" x="0px" y="0px" viewBox="0 0 1200 1200" enable-background="new 0 0 1200 1200" xml:space="preserve" height="512" width="512">
<path fill="#303030" d="M727.837,93.393c-0.132-1.459-1.254-2.635-2.705-2.837c-0.146-0.02-0.291-0.03-0.436-0.03&#10;&#9;c-1.288,0-2.467,0.791-2.94,2.021c-29.972,77.965-46.688,121.456-45.319,204.62l-23.994-4.734l-31.179-6.151&#10;&#9;c-1.41-35.175-2.832-63.572-4.207-91.057c-1.346-26.855-2.733-54.581-4.117-88.736l8.99,4.843c0.471,0.253,0.984,0.377,1.496,0.377&#10;&#9;c0.746,0,1.488-0.266,2.076-0.78c0.989-0.866,1.337-2.255,0.872-3.486c-4.03-10.662-8.011-19.672-11.861-28.385&#10;&#9;c-3.883-8.786-7.55-17.084-11.307-27.02c-0.463-1.227-1.637-2.038-2.949-2.038c0,0,0,0-0.002,0&#10;&#9;c-1.311,0.001-2.483,0.813-2.946,2.039c-3.695,9.789-7.344,18.069-11.208,26.837c-3.912,8.877-7.957,18.057-12.094,29.018&#10;&#9;c-0.473,1.253-0.104,2.668,0.923,3.528c0.582,0.487,1.302,0.736,2.025,0.736c0.556,0,1.111-0.146,1.609-0.442l7.767-4.615&#10;&#9;l1.086-0.646c-1.37,34.315-2.741,62.184-4.071,89.179c-1.353,27.481-2.75,55.874-4.126,90.755l-16.178,3.123l-38.703,7.471&#10;&#9;c0.242-83.692-15.413-127.184-45.072-202.022c-0.482-1.213-1.651-1.991-2.929-1.991c-0.142,0-0.283,0.01-0.426,0.029&#10;&#9;c-1.436,0.195-2.555,1.346-2.708,2.787l-3.833,35.687l-3.827,35.649c-0.149,1.391,0.636,2.714,1.929,3.249&#10;&#9;c0.391,0.162,0.8,0.239,1.203,0.239c0.934,0,1.845-0.416,2.456-1.176l5.355-6.654l2.221-2.759&#10;&#9;c17.917,63.325,14.982,100.012,10.21,159.639c-0.651,8.131-1.323,16.539-1.986,25.54c-0.077,1.048,0.374,2.066,1.202,2.713&#10;&#9;c0.562,0.439,1.248,0.67,1.942,0.67c0.329,0,0.659-0.052,0.98-0.156l51.665-16.906l33.771-11.05v136.214h-2.539&#10;&#9;c-5.077,0-9.206,4.13-9.206,9.206c0,5.075,4.129,9.205,9.206,9.205h2.539v562.3c0,0.63,0.188,1.243,0.54,1.765&#10;&#9;c4.174,6.171,6.379,13.575,6.379,21.411c0,12.378-5.719,23.877-14.926,30.006c-0.524,0.35-0.933,0.849-1.171,1.434&#10;&#9;c-2.233,5.463-3.364,11.255-3.364,17.212c0,22.484,15.965,40.777,35.587,40.777c19.625,0,35.588-18.293,35.588-40.777&#10;&#9;c0-5.212-0.896-10.367-2.662-15.324c-0.237-0.664-0.69-1.23-1.29-1.607c-9.566-6.027-15.51-17.684-15.51-30.423&#10;&#9;c0-7.836,2.205-15.239,6.379-21.41c0.351-0.519,0.538-1.13,0.54-1.758c0.009-3.515,0.946-352.313,1.468-563.604h1.799&#10;&#9;c5.075,0,9.204-4.13,9.204-9.205c0-5.076-4.129-9.206-9.204-9.206h-1.754c0.185-76.242,0.281-120.049,0.299-136.134l54.008,17.662&#10;&#9;l31.022,10.145c0.321,0.105,0.651,0.156,0.98,0.156c0.692,0,1.374-0.228,1.936-0.665c0.826-0.644,1.28-1.656,1.208-2.701&#10;&#9;c-0.658-9.681-1.336-18.655-1.991-27.334c-4.429-58.696-7.154-94.82,10.185-157.932l7.123,8.887&#10;&#9;c0.611,0.764,1.523,1.182,2.461,1.182c0.395,0,0.793-0.074,1.176-0.228c1.289-0.52,2.087-1.823,1.962-3.208&#10;&#9;c-1.687-18.629-3.244-35.823-4.877-53.835L727.837,93.393z" style="fill: rgb(217, 54, 54);"/>
</svg>